<?xml version="1.0" encoding="utf-8"?>
<!-- Generator: Adobe Illustrator 16.0.0, SVG Export Plug-In . SVG Version: 6.00 Build 0)  -->
<!DOCTYPE svg PUBLIC "-//W3C//DTD SVG 1.1//EN" "http://www.w3.org/Graphics/SVG/1.1/DTD/svg11.dtd">
<svg version="1.1" id="Layer_1" xmlns="http://www.w3.org/2000/svg" xmlns:xlink="http://www.w3.org/1999/xlink" x="0px" y="0px"
	 width="388.096px" height="436.508px" viewBox="0 0 388.096 436.508" enable-background="new 0 0 388.096 436.508"
	 xml:space="preserve">
<path fill="#F0C519" d="M219.905,55.696c0,14.75-11.96,26.704-26.706,26.704c-14.745,0-26.702-11.954-26.702-26.704
	c0-14.751,11.958-26.704,26.702-26.704C207.945,28.992,219.905,40.945,219.905,55.696z"/>
<path fill="#3FC5ED" d="M270.411,200.913c0,24.695-20.029,44.718-44.727,44.718c-24.689,0-44.717-20.023-44.717-44.718
	c0-24.691,20.027-44.714,44.717-44.714C250.382,156.199,270.411,176.221,270.411,200.913z"/>
<path opacity="0.8" fill="#E91E25" d="M207.728,200.913c0,24.695-20.018,44.718-44.711,44.718
	c-24.698,0-44.721-20.023-44.721-44.718c0-24.691,20.022-44.714,44.721-44.714C187.709,156.199,207.728,176.221,207.728,200.913z"/>
<line fill="none" stroke="#D6D6D6" stroke-width="2" stroke-miterlimit="10" x1="193.2" y1="92.109" x2="193.2" y2="145.275"/>
<path fill="#247FBC" d="M364.15,360.694c0,24.879-20.17,45.049-45.043,45.049c-24.884,0-45.055-20.17-45.055-45.049
	c0-24.883,20.171-45.053,45.055-45.053C343.98,315.642,364.15,335.812,364.15,360.694z"/>
<circle fill="#E92325" cx="77.015" cy="358.281" r="45.051"/>
<line fill="none" stroke="#D6D6D6" stroke-width="2" stroke-miterlimit="10" x1="148.034" y1="258.34" x2="109.681" y2="307.072"/>
<line fill="none" stroke="#D6D6D6" stroke-width="2" stroke-miterlimit="10" x1="251.458" y1="258.34" x2="289.811" y2="307.072"/>
</svg>
